<svg xmlns="http://www.w3.org/2000/svg" width="400.001" height="351.344" viewBox="0 0 400.001 351.344">
  <g id="noun-ads-1674379" transform="translate(-150 -104.328)">
    <path id="Path_11" data-name="Path 11" d="M88,223.216v91.912c0,7.742,5.148,14.016,11.5,14.016h88.232V209.192H99.5c-6.348,0-11.5,6.277-11.5,14.019Zm0,0" transform="translate(70)" fill="none" stroke="#000" stroke-linecap="round" stroke-linejoin="round" stroke-miterlimit="10" stroke-width="16"/>
    <path id="Path_12" data-name="Path 12" d="M187.728,209.2V329.152c89.32,0,175.328,34.848,238.488,96.872v-313.7C363.056,174.355,277.048,209.2,187.728,209.2Zm0,0" transform="translate(70)" fill="none" stroke="#000" stroke-linecap="round" stroke-linejoin="round" stroke-miterlimit="10" stroke-width="16"/>
    <path id="Path_13" data-name="Path 13" d="M219.688,239.768a377.337,377.337,0,0,0,174.56-60.746" transform="translate(70)" fill="none" stroke="#000" stroke-linecap="round" stroke-linejoin="round" stroke-miterlimit="10" stroke-width="16"/>
    <path id="Path_14" data-name="Path 14" d="M187.7,447.672H135.438l-27.8-118.5h52.258Zm0,0" transform="translate(70)" fill="none" stroke="#000" stroke-linecap="round" stroke-linejoin="round" stroke-miterlimit="10" stroke-width="16"/>
    <path id="Path_15" data-name="Path 15" d="M426.216,218.592a45.824,45.824,0,0,1,0,91.648Zm0,0" transform="translate(70)" fill="none" stroke="#000" stroke-linecap="round" stroke-linejoin="round" stroke-miterlimit="10" stroke-width="16"/>
  </g>
</svg>
