<svg xmlns="http://www.w3.org/2000/svg" width="346.676" height="426.722" viewBox="0 0 346.676 426.722">
  <g id="noun-coupon-1273936" transform="translate(-176.666 -66.668)">
    <path id="Path_1" data-name="Path 1" d="M496.67,66.668H203.33a26.744,26.744,0,0,0-26.664,26.664V480c0,5.332,2.668,10.668,8,12,5.332,2.668,10.664,1.332,14.664-2.668L230,458.666l30.668,30.668a12.893,12.893,0,0,0,18.668,0L310,458.666l30.668,30.668a12.893,12.893,0,0,0,18.668,0l30.668-30.668,30.668,30.668a12.893,12.893,0,0,0,18.668,0l30.668-30.668,30.668,30.668a12.1,12.1,0,0,0,9.332,4c1.332,0,4,0,5.332-1.332q8-4,8-12l-.012-386.67a26.744,26.744,0,0,0-26.664-26.664Zm0,381.33-17.332-17.332a12.893,12.893,0,0,0-18.668,0L430,461.33l-30.668-30.668a12.89,12.89,0,0,0-18.664,0L350,461.33l-30.668-30.668a12.893,12.893,0,0,0-18.668,0L270,461.33l-30.668-30.668a12.893,12.893,0,0,0-18.668,0L203.334,448V93.328h293.33Z"/>
    <path id="Path_2" data-name="Path 2" d="M274,316a12.886,12.886,0,0,0,18.664,0l133.33-133.33A13.2,13.2,0,0,0,407.326,164L274,297.332A12.9,12.9,0,0,0,274,316Z"/>
    <path id="Path_3" data-name="Path 3" d="M284.67,226.67H290c10.668,0,20-4,28-9.332,9.332-8,16-18.668,17.332-30.668A47.646,47.646,0,0,0,326,152c-8-10.668-18.668-16-30.668-17.332A47.646,47.646,0,0,0,260.666,144c-9.332,8-16,18.668-17.332,30.668a47.646,47.646,0,0,0,9.332,34.668C260.67,220,271.334,225.334,284.67,226.67ZM270,177.334A14.664,14.664,0,0,1,278,164a21.5,21.5,0,0,1,12-4h2.668A14.664,14.664,0,0,1,306,168c2.668,4,5.332,9.332,4,14.668A14.664,14.664,0,0,1,302,196c-5.332,2.668-9.332,4-14.668,4A14.664,14.664,0,0,1,274,192,26.865,26.865,0,0,1,270,177.334Z"/>
    <path id="Path_4" data-name="Path 4" d="M382,262.67a56.741,56.741,0,0,0-18.668,30.668,47.646,47.646,0,0,0,9.332,34.668,56.741,56.741,0,0,0,30.668,18.668H410c10.668,0,20-2.668,28-9.332a56.741,56.741,0,0,0,18.668-30.668,47.646,47.646,0,0,0-9.332-34.668,56.741,56.741,0,0,0-30.668-18.668C404.668,252,391.332,254.67,382,262.67ZM426,288a26.865,26.865,0,0,1,4,14.668C428.668,308,426,312,422,316a26.865,26.865,0,0,1-14.668,4C402,318.67,398,316,394,312a26.865,26.865,0,0,1-4-14.668C391.332,292,394,288,398,284a21.5,21.5,0,0,1,12-4h2.668C418,281.334,423.332,284,426,288Z"/>
  </g>
</svg>
