<svg xmlns="http://www.w3.org/2000/svg" width="464.944" height="532.67" viewBox="0 0 464.944 532.67">
  <g id="noun-menu-4980430" transform="translate(-114.876 -13.67)">
    <path id="Path_1" data-name="Path 1" d="M507.87,98.469,200.13,71.574c-7.461-.656-10.828-6.387-10.852-11.781S192.548,48.625,200,47.9l122.11-12.152,144.51-14.406a3.849,3.849,0,0,1,4.234,3.828V82.052a3.828,3.828,0,1,0,7.656,0l0-56.871a11.511,11.511,0,0,0-12.645-11.453l-144.5,14.406L199.229,40.282C187.057,41.5,181.565,51.274,181.62,59.848V493.3a26.726,26.726,0,0,0,24.523,26.766L505.873,546.3c.328.031.668.043,1,.043a11.5,11.5,0,0,0,11.508-11.508l0-424.89a11.434,11.434,0,0,0-10.5-11.465Zm2.855,436.35a3.844,3.844,0,0,1-4.176,3.84L206.82,512.432A19.1,19.1,0,0,1,189.289,493.3l0-417.8a19.6,19.6,0,0,0,10.184,3.7L507.2,106.1a3.833,3.833,0,0,1,3.512,3.84v424.89Z"/>
    <path id="Path_2" data-name="Path 2" d="M332.91,184.21c-3.816-17.926-13.66-35.031-27.7-48.18-4.672-4.375-11.352-5.437-16.254-2.57-14.406,8.4-24.477,22.336-28.371,39.254-4.824,20.922.164,44.383,13.672,64.344,5.6,8.281,8.445,17.828,8.008,26.8l-.809,12.074a3.831,3.831,0,1,0,7.645.512l.809-12.141a52.342,52.342,0,0,0-9.309-31.531c-12.328-18.211-16.9-39.473-12.547-58.34,3.422-14.844,12.219-27.039,24.773-34.355,1.957-1.148,4.977-.492,7.164,1.555A85.937,85.937,0,0,1,325.441,185.8c4.332,20.312-.133,39.758-12.227,53.387-6.738,7.578-10.148,17.828-9.613,28.875l1.172,24.117-19.062-3.359a8.208,8.208,0,0,0-6.77,1.727,8.116,8.116,0,0,0-2.844,6.266v10.969a3.82,3.82,0,0,0-.34,7.57l3.828.68-6.539,108.35c-.82,13.508,10.039,26.949,23.723,29.355s24.531-7.2,23.723-20.988l-6.539-110.64,2.492.438a3.583,3.583,0,0,0,.668.055,3.824,3.824,0,0,0,.656-7.59l-.34-.055-.008-12.2a10.167,10.167,0,0,0-4.891-8.477L311.242,267.7c-.437-9.023,2.3-17.336,7.688-23.418,13.715-15.465,18.812-37.352,13.98-60.066Zm-49.188,112.6a.6.6,0,0,1,.109-.406.711.711,0,0,1,.523-.043l23.43,4.133a2.592,2.592,0,0,1,1.957,2.254v10.828l-26.02-4.582Z"/>
    <path id="Path_3" data-name="Path 3" d="M388.46,280.9l-.9,13.758a3.835,3.835,0,0,0,3.578,4.07,1.786,1.786,0,0,0,.25.012,3.827,3.827,0,0,0,3.816-3.578l.9-13.824c.469-9.559-4.18-19.656-12.141-26.328-8.258-6.922-12.719-17.141-11.637-26.664l8.836-77.852a3.825,3.825,0,1,0-7.6-.867l-8.836,77.852c-1.367,12.043,4.125,24.852,14.328,33.4,6.156,5.152,9.754,12.855,9.406,20.02Z"/>
    <path id="Path_4" data-name="Path 4" d="M432.18,158.62a3.829,3.829,0,1,0-7.613.832l8.828,80.969c1.039,9.57-3.117,17.84-10.852,21.6-8.465,4.113-13.422,12.938-12.93,23.035l1.258,25.836-19.062-3.359a8.208,8.208,0,0,0-6.77,1.727,8.116,8.116,0,0,0-2.844,6.266V326.5a3.82,3.82,0,0,0-.34,7.57l3.816.68L379.133,443.1c-.82,13.508,10.039,26.949,23.723,29.355s24.531-7.2,23.723-20.988l-6.539-110.64,2.492.438a3.583,3.583,0,0,0,.668.055,3.824,3.824,0,0,0,.656-7.59l-.34-.055V321.5a10.167,10.167,0,0,0-4.891-8.477l-1.379-28.3c-.352-7.086,2.875-12.984,8.629-15.773,10.73-5.207,16.516-16.449,15.117-29.312Zm-42.328,156.9a.6.6,0,0,1,.109-.406.711.711,0,0,1,.523-.043l23.43,4.133a2.592,2.592,0,0,1,1.957,2.254v10.828l-26.02-4.582Z"/>
    <path id="Path_5" data-name="Path 5" d="M398.39,233.92,406,235.264a10.014,10.014,0,0,0,1.793.152,9.116,9.116,0,0,0,9.25-9.625L415.1,155.924a3.83,3.83,0,0,0-7.656.219l1.945,69.867a1.748,1.748,0,0,1-.5,1.4,1.814,1.814,0,0,1-1.562.3l-7.613-1.344a4.342,4.342,0,0,1-3.4-4.023l1.945-69.18a3.843,3.843,0,0,0-3.719-3.937,3.8,3.8,0,0,0-3.937,3.719l-1.945,69.18a11.954,11.954,0,0,0,9.738,11.793Z"/>
    <path id="Path_6" data-name="Path 6" d="M549.74,257.86l24.969-13.684a3.828,3.828,0,0,0-3.676-6.715l-24.969,13.684a3.829,3.829,0,0,0,1.84,7.187,3.892,3.892,0,0,0,1.836-.473Z"/>
    <path id="Path_7" data-name="Path 7" d="M577.53,349.15l-26.074-11.461a3.825,3.825,0,0,0-3.086,7l26.074,11.461a3.825,3.825,0,1,0,3.086-7Z"/>
    <path id="Path_8" data-name="Path 8" d="M143.37,332.17,117.2,343.4a3.831,3.831,0,0,0,1.512,7.352,3.694,3.694,0,0,0,1.508-.316l26.172-11.234a3.828,3.828,0,1,0-3.02-7.035Z"/>
    <path id="Path_9" data-name="Path 9" d="M153.05,245.88,128.2,231.966a3.83,3.83,0,0,0-3.742,6.684l24.852,13.914a3.83,3.83,0,1,0,3.742-6.684Z"/>
  </g>
</svg>
