<svg xmlns="http://www.w3.org/2000/svg" width="20" height="19.998" viewBox="0 0 20 19.998">
  <g id="Group_22" data-name="Group 22" transform="translate(-574.27 -783.227)">
    <g id="Group_21" data-name="Group 21" transform="translate(574.27 783.227)">
      <path id="Path_57" data-name="Path 57" d="M441.27,824.488c.062-.291.108-.587.19-.873a4.659,4.659,0,0,1,4.447-3.38q5.36-.016,10.721,0a4.671,4.671,0,0,1,4.636,4.626c.012,1.295,0,2.59,0,3.885v8.111a3.321,3.321,0,0,1-.66,1.8,7.281,7.281,0,0,1-1.927,1.525l-.624-1.525a2.323,2.323,0,0,0,1.417-1.014,4.429,4.429,0,0,0,.232-2.14s0-6.251,0-6.757c0-1.269,0-2.538,0-3.807a3.113,3.113,0,0,0-2.524-3.09,3.221,3.221,0,0,0-.64-.059q-5.273-.005-10.545,0a3.117,3.117,0,0,0-3.162,3.153q0,5.281,0,10.562a3.119,3.119,0,0,0,3.144,3.152c1.334,0,2.669,0,4,0,.613,0,8.7,0,8.7,0v1.527l-8.5.035h-4.648a.849.849,0,0,0-.128-.035,4.681,4.681,0,0,1-3.934-3.33c-.084-.292-.131-.594-.195-.891Z" transform="translate(-441.27 -820.227)" fill="#4f322e"/>
      <path id="Path_60" data-name="Path 60" d="M582.628,889.23c-.663,0-1.327.006-1.99,0a.77.77,0,0,1-.766-1.008.737.737,0,0,1,.724-.548q2.019-.01,4.038,0a.778.778,0,0,1-.016,1.555C583.954,889.237,583.291,889.23,582.628,889.23Z" transform="translate(-572.609 -884.149)" fill="#4f322e"/>
    </g>
  </g>
</svg>
