<?xml version="1.0" encoding="utf-8"?>
<!-- Generator: Adobe Illustrator 22.0.0, SVG Export Plug-In . SVG Version: 6.00 Build 0)  -->
<svg version="1.1" id="Layer_1" xmlns="http://www.w3.org/2000/svg" xmlns:xlink="http://www.w3.org/1999/xlink" x="0px" y="0px"
	 viewBox="0 0 283.5 283.5" style="enable-background:new 0 0 283.5 283.5;" xml:space="preserve">
<g>
	<path d="M282.5,144.5c0,30.4,0.3,60.7-0.1,91.1c-0.4,28.8-19.7,48.7-48.2,48.9c-61.5,0.4-122.9,0.5-184.4,0
		c-28.4-0.2-47.7-20.3-47.8-49.3C1.6,174.5,1.6,113.7,1.9,53C2.1,24.2,21.7,4.3,50.1,4.1c61.5-0.4,122.9-0.5,184.4,0
		c28.4,0.2,47.5,20.3,47.8,49.3C282.8,83.8,282.5,114.1,282.5,144.5z M141.5,20.3c-28.8,0-57.7-0.2-86.5,0.1
		c-23.5,0.3-36.5,13-36.6,36.3C18,115.2,18,173.6,18.3,232c0.1,23.3,13.2,36,36.9,36.1c58.4,0.3,116.9,0.3,175.3,0
		c22.2-0.1,35.4-13.2,35.5-35.2c0.4-59.2,0.4-118.4,0-177.6c-0.1-21.9-13.4-34.6-35.7-34.9C200.7,20,171.1,20.3,141.5,20.3z"/>
	<path d="M97.5,141c0.8-26.6,19-42.3,47.9-41.4c26.5,0.8,42.3,19,41.4,47.9c-0.8,26.5-19,42.3-47.9,41.4
		C112.4,188.1,96.6,169.9,97.5,141z M170.9,145.8c-1.4-18.6-9.7-29.2-27.9-29.7c-18.1-0.5-27.9,8.9-29.1,26.7
		c-1.1,17.6,10.9,29.9,28.3,29.7C160.7,172.3,168.7,161.6,170.9,145.8z"/>
	<path d="M49.4,116.3c-15.1-15.1-14.7-45.6-0.7-61.6c14.9-17.1,46.8-19.8,66.2-3.7c-18.5,5.1-40.1,5.1-51.1,15.9
		C53.3,77.2,53.9,98.7,49.4,116.3z"/>
	<path d="M168.5,51.2c19.3-15.1,49-13.7,64.2,0.4c15.7,14.6,18.3,44.7,3.2,66.7c-5.2-19.4-4.9-41-15.6-51.8
		C209.7,56,188.1,56.4,168.5,51.2z"/>
	<path d="M48.9,172.3c5.1,18,5.3,39.6,16.3,50.8c10.1,10.3,31.7,9.4,50,13.9c-18.5,16-49.4,14.3-64.8-1.3
		C34.9,220.1,33.5,188.7,48.9,172.3z"/>
	<path d="M169.9,237.6c18.1-5.1,39.8-5.3,50.9-16.2c10.4-10.2,9.6-31.8,14-49.8c15.9,17.4,14.4,48.7-1.1,64.2
		C218.2,251.4,187.2,253,169.9,237.6z"/>
</g>
</svg>
