<svg xmlns="http://www.w3.org/2000/svg" width="504.003" height="414.399" viewBox="0 0 504.003 414.399">
  <g id="noun-users-847318" transform="translate(-98.001 -72.801)">
    <path id="Path_10" data-name="Path 10" d="M277.2,72.8a89.6,89.6,0,1,0,89.6,89.6,89.857,89.857,0,0,0-89.6-89.6ZM467.6,84a72.8,72.8,0,1,0,72.8,72.8A73.057,73.057,0,0,0,467.6,84ZM277.2,106.4a56,56,0,1,1-56,56,55.75,55.75,0,0,1,56-56Zm190.4,11.2a39.2,39.2,0,1,1-39.2,39.2A38.948,38.948,0,0,1,467.6,117.6Zm0,123.2c-47.3,0-89.508,12.762-114.27,38.324A274.975,274.975,0,0,0,277.205,268.8c-47.648,0-90.8,11.133-123.38,30.273S98,346.855,98,380.8v89.6c0,8.8,8,16.8,16.8,16.8H439.6c8.8,0,16.8-8,16.8-16.8v-56H585.2c8.8,0,16.8-8,16.8-16.8V324.8c0-26.91-18.34-49-42.875-62.824S502.633,240.8,467.6,240.8Zm0,33.6c30.117,0,56.926,6.848,74.9,16.977s25.9,21.73,25.9,33.426v56h-112c0-33.938-23.254-62.582-55.824-81.727-3.414-2.008-7.035-3.949-10.676-5.773,18.031-10.793,45.82-18.9,77.7-18.9Zm-190.4,28c42.32,0,80.262,10.191,106.4,25.551s39.2,34.395,39.2,52.852v72.8H131.6V380.8c0-18.457,13.062-37.492,39.2-52.852S234.876,302.4,277.2,302.4Z"/>
  </g>
</svg>
